<svg xmlns="http://www.w3.org/2000/svg" width="98.95" height="19.716" viewBox="0 0 98.95 19.716">
  <path id="Path_2" data-name="Path 2" d="M8.988-10.766a5.667,5.667,0,0,0,2.488-.444,2.56,2.56,0,0,0,1.4-2.514,2.423,2.423,0,0,0-1.485-2.463A6.676,6.676,0,0,0,8.9-16.542H4.393v5.776Zm.851,8.607A3.843,3.843,0,0,0,13.152-3.5a3.388,3.388,0,0,0,.622-2.057,2.736,2.736,0,0,0-1.815-2.768,6.872,6.872,0,0,0-2.552-.394H4.393v6.563ZM1.917-18.649H9.928q3.275,0,4.659,1.955a4.518,4.518,0,0,1,.813,2.666,4.2,4.2,0,0,1-1,2.895,4.9,4.9,0,0,1-1.5,1.092,6.338,6.338,0,0,1,2.146,1.231A4.468,4.468,0,0,1,16.3-5.446a5.2,5.2,0,0,1-1.13,3.263Q13.482,0,9.8,0H1.917Zm20.246,0h13.6v2.285H24.626V-10.7h10.3v2.158h-10.3v6.322H35.951V0H22.163ZM45.444-3.542a6.062,6.062,0,0,0,1.892,1.358,7.087,7.087,0,0,0,2.856.47,5.481,5.481,0,0,0,5.065-2.844A9.846,9.846,0,0,0,56.489-9.61a9.162,9.162,0,0,0-.482-3.034,9.786,9.786,0,0,0-.787-1.638Zm-3.885,4L40.721-.33l2.222-2.285A9.317,9.317,0,0,1,41.4-5.668a12.487,12.487,0,0,1-.5-3.561,10.972,10.972,0,0,1,1.98-6.6A8.017,8.017,0,0,1,49.8-19.17a11.313,11.313,0,0,1,3.815.565,7.435,7.435,0,0,1,2.609,1.542l1.955-2.095.813.774L57-16.187a9.778,9.778,0,0,1,1.32,2.247,11.284,11.284,0,0,1,.762,4.291,10.532,10.532,0,0,1-2.6,7.439A8.46,8.46,0,0,1,49.964.546a9.771,9.771,0,0,1-4.113-.8A8.1,8.1,0,0,1,43.7-1.739ZM54.534-15.158a7.4,7.4,0,0,0-1.574-1.1,6.636,6.636,0,0,0-2.983-.647,5.985,5.985,0,0,0-4.659,2,8.46,8.46,0,0,0-1.8,5.846,11.862,11.862,0,0,0,.254,2.425A6.226,6.226,0,0,0,44.7-4.418Zm18.825,5.053a4.9,4.9,0,0,0,2.812-.711,2.894,2.894,0,0,0,1.035-2.564A2.751,2.751,0,0,0,75.758-16.1a4.73,4.73,0,0,0-2.069-.381h-6.17v6.373Zm-8.366-8.544h8.633a8.61,8.61,0,0,1,3.517.622,4.4,4.4,0,0,1,2.628,4.405,4.954,4.954,0,0,1-.692,2.742,5,5,0,0,1-1.936,1.714A3.815,3.815,0,0,1,78.786-8,4.2,4.2,0,0,1,79.4-5.649l.089,2.5a7.688,7.688,0,0,0,.178,1.587,1.56,1.56,0,0,0,.813,1.143V0h-3.1a2.33,2.33,0,0,1-.2-.622,11.94,11.94,0,0,1-.127-1.473L76.9-5.205a2.613,2.613,0,0,0-1.358-2.45A5.618,5.618,0,0,0,73.27-8H67.519V0H64.992Zm21.072,0h2.983l9.42,15.107V-18.649h2.4V0H98.036l-9.56-15.095V0H86.064Z" transform="translate(-1.917 19.17)" fill="#fff"/>
</svg>
